<svg version="1.1" id="Layer_1" xmlns="http://www.w3.org/2000/svg" xmlns:xlink="http://www.w3.org/1999/xlink" x="0px" y="0px"
	 width="100%" viewBox="0 0 112 113" enable-background="new 0 0 112 113" xml:space="preserve">
<path fill="#F99316" opacity="1.000000" stroke="none" 
	d="
M52.000000,114.000000 
	C44.979053,114.000000 37.958103,114.000000 30.490049,113.639786 
	C36.006104,107.191833 41.969269,101.104103 48.285072,95.243675 
	C51.679443,95.429276 54.899025,96.024040 57.731255,95.232605 
	C68.396744,92.252243 73.606186,84.272621 76.338852,73.978363 
	C78.449890,72.821602 80.448669,71.940437 81.907883,70.509171 
	C90.626686,61.957378 99.186630,53.243748 107.890663,44.676662 
	C109.368423,43.222153 111.285759,42.214245 113.000000,41.000000 
	C113.000000,44.692909 113.000000,48.385818 112.664948,52.611420 
	C111.257545,53.893024 110.045715,54.502037 109.133430,55.411518 
	C90.937737,73.551300 72.763351,91.712578 54.640694,109.925255 
	C53.523636,111.047852 52.869511,112.631088 52.000000,114.000000 
z"/>
<path fill="#FA9E18" opacity="1.000000" stroke="none" 
	d="
M47.932434,95.016373 
	C41.969269,101.104103 36.006104,107.191833 30.021471,113.639786 
	C20.333284,114.000000 10.666570,114.000000 1.000000,114.000000 
	C1.000000,112.284073 1.000000,110.641510 1.346196,108.432869 
	C6.289782,103.915909 10.843384,99.912369 15.503515,96.036934 
	C17.745739,94.172256 20.188925,92.549232 22.694798,91.136353 
	C23.522182,92.027489 24.130722,92.983299 24.879793,93.110313 
	C31.338430,94.205444 37.255013,92.964462 41.644356,87.838943 
	C42.848072,86.433342 42.834614,83.985390 43.379704,82.015762 
	C41.580036,82.575172 39.681736,82.929787 38.002213,83.738655 
	C34.952934,85.207207 32.033813,86.946022 29.060369,88.572037 
	C28.594469,88.037758 28.128569,87.503471 27.662668,86.969185 
	C28.558903,84.749809 29.227470,82.399002 30.412497,80.346344 
	C31.716034,78.088402 33.494629,76.104721 35.417515,73.979126 
	C37.492279,73.309540 39.215782,72.662392 41.222321,72.199539 
	C47.067574,75.804352 48.675247,80.853302 47.885033,87.105537 
	C47.557240,89.699059 47.896519,92.376884 47.932434,95.016373 
z"/>
<path fill="#F98F16" opacity="1.000000" stroke="none" 
	d="
M52.466118,114.000000 
	C52.869511,112.631088 53.523636,111.047852 54.640694,109.925255 
	C72.763351,91.712578 90.937737,73.551300 109.133430,55.411518 
	C110.045715,54.502037 111.257545,53.893024 112.664948,53.072052 
	C113.000000,57.689255 113.000000,62.378510 112.664963,67.605957 
	C111.373390,68.778786 110.278603,69.274574 109.480919,70.068756 
	C96.054359,83.436584 82.648766,96.825653 69.299431,110.270493 
	C68.297363,111.279739 67.755692,112.746124 67.000000,114.000000 
	C62.310745,114.000000 57.621487,114.000000 52.466118,114.000000 
z"/>
<path fill="#F98A16" opacity="1.000000" stroke="none" 
	d="
M67.468399,114.000000 
	C67.755692,112.746124 68.297363,111.279739 69.299431,110.270493 
	C82.648766,96.825653 96.054359,83.436584 109.480919,70.068756 
	C110.278603,69.274574 111.373390,68.778786 112.664963,68.072067 
	C113.000000,74.354401 113.000000,80.708794 112.639832,87.553360 
	C111.123238,88.602142 109.719948,88.908310 108.849586,89.759445 
	C102.141983,96.318932 95.482613,102.930740 88.957809,109.671074 
	C87.920998,110.742134 87.633781,112.538803 87.000000,114.000000 
	C80.645599,114.000000 74.291206,114.000000 67.468399,114.000000 
z"/>
<path fill="#FAB415" opacity="1.000000" stroke="none" 
	d="
M0.999999,55.000000 
	C1.000000,50.310745 1.000000,45.621487 1.339556,40.392723 
	C3.605542,38.579025 5.804142,37.579632 7.413674,35.985489 
	C16.957720,26.532688 26.420622,16.995718 35.769039,7.349657 
	C37.509861,5.553410 38.606216,3.132580 40.000000,1.000000 
	C44.689255,1.000000 49.378513,1.000000 54.460220,1.340266 
	C54.020351,3.103720 53.431648,4.764167 52.315151,5.910601 
	C46.241100,12.147535 40.078587,18.300228 33.861973,24.395691 
	C30.111683,28.072891 26.099693,31.486229 22.402729,35.213940 
	C18.589230,39.059158 15.210789,43.349697 11.274215,47.054623 
	C8.136326,50.007862 4.445417,52.373512 0.999999,55.000000 
z"/>
<path fill="#FAAE17" opacity="1.000000" stroke="none" 
	d="
M1.000001,83.000000 
	C1.000000,77.977905 1.000000,72.955818 1.335048,67.394821 
	C2.861321,65.988945 4.192303,65.262131 5.223087,64.234261 
	C24.965616,44.547623 44.685135,24.837818 64.355362,5.078995 
	C65.473976,3.955339 66.129143,2.370303 67.000000,1.000000 
	C69.370560,1.000000 71.741112,1.000000 74.483749,1.335036 
	C73.644020,3.206543 72.567307,4.876920 71.198601,6.257876 
	C61.899139,15.640537 52.478245,24.903811 43.257370,34.362400 
	C41.762939,35.895355 41.067856,38.207577 39.698730,40.338951 
	C38.152325,40.962734 36.886143,41.349377 35.672443,41.860619 
	C24.594719,46.526825 18.288450,57.274521 20.061920,67.881409 
	C18.227318,68.990921 16.687992,69.916039 15.315481,71.044106 
	C10.512575,74.991592 5.767217,79.009094 1.000001,83.000000 
z"/>
<path fill="#FAB015" opacity="1.000000" stroke="none" 
	d="
M66.539368,1.000000 
	C66.129143,2.370303 65.473976,3.955339 64.355362,5.078995 
	C44.685135,24.837818 24.965616,44.547623 5.223087,64.234261 
	C4.192303,65.262131 2.861321,65.988945 1.335048,66.927963 
	C1.000000,63.307091 1.000000,59.614182 0.999999,55.460636 
	C4.445417,52.373512 8.136326,50.007862 11.274215,47.054623 
	C15.210789,43.349697 18.589230,39.059158 22.402729,35.213940 
	C26.099693,31.486229 30.111683,28.072891 33.861973,24.395691 
	C40.078587,18.300228 46.241100,12.147535 52.315151,5.910601 
	C53.431648,4.764167 54.020351,3.103720 54.926338,1.340266 
	C58.692909,1.000000 62.385818,1.000000 66.539368,1.000000 
z"/>
<path fill="#FAA719" opacity="1.000000" stroke="none" 
	d="
M1.000001,83.468651 
	C5.767217,79.009094 10.512575,74.991592 15.315481,71.044106 
	C16.687992,69.916039 18.227318,68.990921 20.492393,67.978935 
	C25.434969,68.048691 29.585821,68.319870 33.712345,68.110794 
	C37.077152,67.940308 39.486992,68.937546 40.939285,72.015244 
	C39.215782,72.662392 37.492279,73.309540 35.268513,73.699333 
	C33.106857,71.171974 31.365316,71.344215 29.308962,73.033134 
	C23.636827,77.691780 22.007494,83.828094 22.541111,90.816780 
	C20.188925,92.549232 17.745739,94.172256 15.503515,96.036934 
	C10.843384,99.912369 6.289782,103.915909 1.346196,107.933395 
	C1.000000,99.979103 1.000000,91.958199 1.000001,83.468651 
z"/>
<path fill="#FAB915" opacity="1.000000" stroke="none" 
	d="
M39.532394,1.000000 
	C38.606216,3.132580 37.509861,5.553410 35.769039,7.349657 
	C26.420622,16.995718 16.957720,26.532688 7.413674,35.985489 
	C5.804142,37.579632 3.605542,38.579025 1.339556,39.926605 
	C1.000000,34.645069 1.000000,29.290140 1.360160,23.445829 
	C2.500273,22.704929 3.501965,22.680111 4.026295,22.167253 
	C10.075608,16.250265 16.092176,10.297889 21.996445,4.237043 
	C22.698648,3.516216 22.682936,2.096018 23.000000,1.000000 
	C28.354929,1.000000 33.709858,1.000000 39.532394,1.000000 
z"/>
<path fill="#F99717" opacity="1.000000" stroke="none" 
	d="
M113.000000,40.535351 
	C111.285759,42.214245 109.368423,43.222153 107.890663,44.676662 
	C99.186630,53.243748 90.626686,61.957378 81.907883,70.509171 
	C80.448669,71.940437 78.449890,72.821602 76.272308,73.546158 
	C76.158134,70.766571 75.581543,67.326965 76.931686,66.204117 
	C85.205757,59.322983 90.472496,50.456940 95.383324,40.978828 
	C97.707016,39.591637 99.779373,38.356426 101.614967,36.835476 
	C105.475807,33.636433 109.212402,30.287445 113.000000,27.000000 
	C113.000000,31.356899 113.000000,35.713799 113.000000,40.535351 
z"/>
<path fill="#FAAB17" opacity="1.000000" stroke="none" 
	d="
M40.003292,40.159595 
	C41.067856,38.207577 41.762939,35.895355 43.257370,34.362400 
	C52.478245,24.903811 61.899139,15.640537 71.198601,6.257876 
	C72.567307,4.876920 73.644020,3.206543 74.927917,1.335036 
	C78.030594,1.000000 81.061188,1.000000 84.473846,1.335047 
	C79.007431,7.843464 73.054420,13.923129 67.380470,20.252947 
	C65.872025,21.935757 65.219986,24.386244 63.945152,26.709255 
	C60.601070,29.401976 56.803509,31.365215 54.524937,34.450333 
	C50.672367,39.666588 45.925938,41.015186 40.003292,40.159595 
z"/>
<path fill="#F98316" opacity="1.000000" stroke="none" 
	d="
M87.468666,114.000000 
	C87.633781,112.538803 87.920998,110.742134 88.957809,109.671074 
	C95.482613,102.930740 102.141983,96.318932 108.849586,89.759445 
	C109.719948,88.908310 111.123238,88.602142 112.639832,88.021767 
	C113.000000,96.593071 113.000000,105.186142 113.000000,114.000000 
	C104.647072,114.000000 96.292198,114.000000 87.468666,114.000000 
z"/>
<path fill="#F99C17" opacity="1.000000" stroke="none" 
	d="
M113.000000,26.531727 
	C109.212402,30.287445 105.475807,33.636433 101.614967,36.835476 
	C99.779373,38.356426 97.707016,39.591637 95.392563,40.593925 
	C96.131088,33.244682 97.218964,26.257799 98.646454,19.103481 
	C100.623505,17.605421 102.236839,16.243729 103.903625,14.950963 
	C106.918922,12.612282 109.966125,10.314729 113.000000,8.000002 
	C113.000000,14.021152 113.000000,20.042303 113.000000,26.531727 
z"/>
<path fill="#FAA317" opacity="1.000000" stroke="none" 
	d="
M113.000000,7.502097 
	C109.966125,10.314729 106.918922,12.612282 103.903625,14.950963 
	C102.236839,16.243729 100.623505,17.605421 98.355789,18.850172 
	C93.216614,18.726320 88.707733,18.688343 84.209839,18.272682 
	C85.631157,15.945723 86.938919,13.911183 88.473373,12.065068 
	C91.583961,8.322720 94.817276,4.682388 98.000000,1.000000 
	C102.884697,1.000000 107.769394,1.000000 113.000000,1.000000 
	C113.000000,2.988142 113.000000,4.996166 113.000000,7.502097 
z"/>
<path fill="#FABE15" opacity="1.000000" stroke="none" 
	d="
M22.531218,1.000000 
	C22.682936,2.096018 22.698648,3.516216 21.996445,4.237043 
	C16.092176,10.297889 10.075608,16.250265 4.026295,22.167253 
	C3.501965,22.680111 2.500273,22.704929 1.360160,22.978224 
	C1.000000,15.740432 1.000000,8.480865 1.000000,1.000000 
	C8.019269,1.000000 15.040852,1.000000 22.531218,1.000000 
z"/>
<path fill="#FAA819" opacity="1.000000" stroke="none" 
	d="
M97.536819,1.000000 
	C94.817276,4.682388 91.583961,8.322720 88.473373,12.065068 
	C86.938919,13.911183 85.631157,15.945723 83.865631,18.388504 
	C77.065201,21.416092 70.619972,23.950178 64.174736,26.484264 
	C65.219986,24.386244 65.872025,21.935757 67.380470,20.252947 
	C73.054420,13.923129 79.007431,7.843464 84.927956,1.335047 
	C89.024544,1.000000 93.049088,1.000000 97.536819,1.000000 
z"/>
<path fill="#FFFCF8" opacity="1.000000" stroke="none" 
	d="
M63.945152,26.709255 
	C70.619972,23.950178 77.065201,21.416092 83.854645,18.766186 
	C88.707733,18.688343 93.216614,18.726320 98.016167,19.017609 
	C97.218964,26.257799 96.131088,33.244682 95.033966,40.616470 
	C90.472496,50.456940 85.205757,59.322983 76.931686,66.204117 
	C75.581543,67.326965 76.158134,70.766571 75.910736,73.567581 
	C73.606186,84.272621 68.396744,92.252243 57.731255,95.232605 
	C54.899025,96.024040 51.679443,95.429276 48.285072,95.243675 
	C47.896519,92.376884 47.557240,89.699059 47.885033,87.105537 
	C48.675247,80.853302 47.067574,75.804352 41.222321,72.199539 
	C39.486992,68.937546 37.077152,67.940308 33.712345,68.110794 
	C29.585821,68.319870 25.434969,68.048691 20.864162,67.887604 
	C18.288450,57.274521 24.594719,46.526825 35.672443,41.860619 
	C36.886143,41.349377 38.152325,40.962734 39.698730,40.338951 
	C45.925938,41.015186 50.672367,39.666588 54.524937,34.450333 
	C56.803509,31.365215 60.601070,29.401976 63.945152,26.709255 
M87.193710,23.993296 
	C65.825981,27.961369 51.715477,40.352470 44.618359,60.799786 
	C43.709553,63.418125 42.560509,66.289055 45.964878,69.043579 
	C48.537430,72.173546 51.571991,72.825859 55.451527,71.451622 
	C67.377945,67.226967 77.238304,60.303123 84.061455,49.567898 
	C88.958069,41.863800 92.367188,33.561188 92.238358,24.154881 
	C91.362747,23.923956 90.896477,23.683859 90.443756,23.707174 
	C89.625198,23.749325 88.814728,23.948751 87.193710,23.993296 
M62.206898,74.923729 
	C52.470226,78.281425 51.223392,80.617432 54.185806,89.951721 
	C63.335392,88.880928 70.439766,80.479843 69.641113,71.324829 
	C67.335068,72.470650 65.131210,73.565697 62.206898,74.923729 
M42.156437,45.954876 
	C32.462181,48.120140 26.608715,54.046810 26.200163,62.710396 
	C29.463831,62.710396 32.732498,62.874283 35.966808,62.612953 
	C36.968662,62.532001 38.318703,61.497837 38.751785,60.552898 
	C40.605572,56.508125 42.237305,52.356144 43.778419,48.179935 
	C43.986156,47.616993 43.218880,46.694248 42.156437,45.954876 
z"/>
<path fill="#FFFAF4" opacity="1.000000" stroke="none" 
	d="
M22.694799,91.136353 
	C22.007494,83.828094 23.636827,77.691780 29.308962,73.033134 
	C31.365316,71.344215 33.106857,71.171974 34.917255,73.721756 
	C33.494629,76.104721 31.716034,78.088402 30.412497,80.346344 
	C29.227470,82.399002 28.558903,84.749809 27.662668,86.969185 
	C28.128569,87.503471 28.594469,88.037758 29.060369,88.572037 
	C32.033813,86.946022 34.952934,85.207207 38.002213,83.738655 
	C39.681736,82.929787 41.580036,82.575172 43.379704,82.015762 
	C42.834614,83.985390 42.848072,86.433342 41.644356,87.838943 
	C37.255013,92.964462 31.338430,94.205444 24.879793,93.110313 
	C24.130722,92.983299 23.522182,92.027489 22.694799,91.136353 
z"/>
<path fill="#FAA01B" opacity="1.000000" stroke="none" 
	d="
M88.000885,24.082506 
	C88.814728,23.948751 89.625198,23.749325 90.443756,23.707174 
	C90.896477,23.683859 91.362747,23.923956 92.238358,24.154881 
	C92.367188,33.561188 88.958069,41.863800 84.061455,49.567898 
	C77.238304,60.303123 67.377945,67.226967 55.451527,71.451622 
	C51.571991,72.825859 48.537430,72.173546 46.077705,68.374825 
	C51.858231,61.993885 57.525928,56.281704 63.465347,50.840565 
	C67.132179,54.576763 71.939644,55.057877 75.382370,52.277012 
	C79.334915,49.084362 79.505966,44.851562 75.987686,38.892479 
	C77.572334,36.665699 79.055145,34.770298 80.589798,32.917835 
	C83.042053,29.957729 85.528748,27.026148 88.000885,24.082506 
z"/>
<path fill="#FAA51C" opacity="1.000000" stroke="none" 
	d="
M87.597298,24.037899 
	C85.528748,27.026148 83.042053,29.957729 80.589798,32.917835 
	C79.055145,34.770298 77.572334,36.665699 75.649239,38.753822 
	C71.553474,36.903984 67.861023,36.673473 64.635757,39.634979 
	C61.229115,42.763023 61.318867,46.611340 63.193626,50.569519 
	C57.525928,56.281704 51.858231,61.993885 46.015202,68.015945 
	C42.560509,66.289055 43.709553,63.418125 44.618359,60.799786 
	C51.715477,40.352470 65.825981,27.961369 87.597298,24.037899 
z"/>
<path fill="#FA9E24" opacity="1.000000" stroke="none" 
	d="
M62.567123,74.792236 
	C65.131210,73.565697 67.335068,72.470650 69.641113,71.324829 
	C70.439766,80.479843 63.335392,88.880928 54.185806,89.951721 
	C51.223392,80.617432 52.470226,78.281425 62.567123,74.792236 
z"/>
<path fill="#FAAD23" opacity="1.000000" stroke="none" 
	d="
M42.529762,45.946491 
	C43.218880,46.694248 43.986156,47.616993 43.778419,48.179935 
	C42.237305,52.356144 40.605572,56.508125 38.751785,60.552898 
	C38.318703,61.497837 36.968662,62.532001 35.966808,62.612953 
	C32.732498,62.874283 29.463831,62.710396 26.200163,62.710396 
	C26.608715,54.046810 32.462181,48.120140 42.529762,45.946491 
z"/>
<path fill="#FFF9F1" opacity="1.000000" stroke="none" 
	d="
M63.465347,50.840565 
	C61.318867,46.611340 61.229115,42.763023 64.635757,39.634979 
	C67.861023,36.673473 71.553474,36.903984 75.570663,39.104473 
	C79.505966,44.851562 79.334915,49.084362 75.382370,52.277012 
	C71.939644,55.057877 67.132179,54.576763 63.465347,50.840565 
z"/>
</svg>