<svg width="32" height="32" viewBox="0 0 32 32" fill="none" xmlns="http://www.w3.org/2000/svg">
  <!-- Background with rounded corners and gradient -->
  <defs>
    <linearGradient id="logoGradient" x1="0%" y1="0%" x2="100%" y2="100%">
      <stop offset="0%" style="stop-color:#fbbf24;stop-opacity:1" />
      <stop offset="100%" style="stop-color:#f97316;stop-opacity:1" />
    </linearGradient>
  </defs>
  
  <!-- Rounded rectangle background -->
  <rect x="2" y="2" width="28" height="28" rx="6" fill="url(#logoGradient)" stroke="none"/>
  
  <!-- Rocket outline - main body -->
  <path d="M16 4L18 8L19 10L19 12L18 14L16 16L14 14L13 12L13 10L14 8L16 4Z" stroke="white" stroke-width="1.5" fill="none"/>
  
  <!-- Rocket window -->
  <circle cx="16" cy="11" r="1" fill="white"/>
  
  <!-- Rocket fins -->
  <path d="M14 14L12 16L13 14L14 14Z" fill="white"/>
  <path d="M18 14L20 16L19 14L18 14Z" fill="white"/>
  
  <!-- Rocket flames -->
  <path d="M15 16L14 19L16 18L15 16Z" fill="white"/>
  <path d="M17 16L18 19L16 18L17 16Z" fill="white"/>
</svg>
